<svg width="18" height="18" viewBox="0 0 18 18" fill="none" xmlns="http://www.w3.org/2000/svg">
<path d="M8.99999 0C8.25499 0 7.49199 0.138007 6.89999 0.432007L0.562011 3.60199C0.181012 3.82099 0.002 4.12599 0 4.50299V11.956C0 13.153 0.797999 14.464 1.875 15L7.156 17.608C8.207 18.131 9.79299 18.131 10.844 17.608L16.094 15C17.18 14.46 18 13.132 18 11.925V4.50299C18.005 4.13899 17.762 3.73199 17.437 3.60199L11.044 0.432007C10.451 0.138007 9.74499 0 8.99999 0ZM7.81201 2.23599C8.435 1.92699 9.565 1.92699 10.187 2.23599L10.75 2.515L5 5.37298L3.25 4.50299L7.81201 2.23599ZM13.007 3.60199L14.765 4.48599C13.026 5.35399 10.767 6.49399 10.193 6.77899C9.59099 7.07799 8.45398 7.09998 7.85198 6.79998L7.242 6.48001L13.007 3.60199Z" fill="#F0F2F6"/>
</svg>
